# xmcd
#
# Track frame offsets:
#	150
#	24697
#	47680
#	60772
#	72455
#
# Disc length: 1119 seconds
#
# Revision: 1
# Processed by: cddbd v1.5.2PL0 Copyright (c) Steve Scherf et al.
# Submitted via: audiograbber 1.83.01
#
DISCID=3c045d05
DTITLE=Band  in Nashville - Cotton-Eyed Joe/Sweetheart Schottische
DYEAR=1992
DGENRE=Country
TTITLE0=Cotton-Eyed Joe/Sweetheart Schottische(Vocal)
TTITLE1=Cotton-Eyed Joe/Sweetheart Schottische(Instr.)
TTITLE2=Cotton-Eyed Joe(Vocal)
TTITLE3=Cotton-Eyed Joe(Instr.)
TTITLE4=Sweetheart Schottische
EXTD=
EXTT0=
EXTT1=
EXTT2=
EXTT3=
EXTT4=
PLAYORDER=
